<mxfile host="app.diagrams.net" agent="Mozilla/5.0 (Macintosh; Intel Mac OS X 10_15_7) AppleWebKit/537.36 (KHTML, like Gecko) Chrome/128.0.0.0 Safari/537.36" version="28.1.0">
  <diagram name="PÃ¡gina-1" id="-lQeKvBAd6V5E4koSqEf">
    <mxGraphModel dx="1613" dy="510" grid="1" gridSize="10" guides="1" tooltips="1" connect="1" arrows="1" fold="1" page="1" pageScale="1" pageWidth="827" pageHeight="1169" math="0" shadow="0">
      <root>
        <mxCell id="0" />
        <mxCell id="1" parent="0" />
        <mxCell id="7ifipG9ng2HD5G6kwdC--1" value="&lt;font style=&quot;font-size: 39px;&quot;&gt;TodoCard&lt;/font&gt;" style="rounded=1;whiteSpace=wrap;html=1;fillColor=#B2C9AB;fontColor=#46495D;strokeColor=#788AA3;labelBackgroundColor=none;" vertex="1" parent="1">
          <mxGeometry x="240" y="200" width="260" height="510" as="geometry" />
        </mxCell>
        <mxCell id="7ifipG9ng2HD5G6kwdC--3" value="&lt;font style=&quot;font-size: 21px;&quot;&gt;modalDraft&lt;/font&gt;" style="rounded=1;whiteSpace=wrap;html=1;strokeColor=#B20000;fontColor=#ffffff;fillColor=light-dark(#E51400,#99342C);arcSize=50;verticalAlign=middle;spacing=0;" vertex="1" parent="1">
          <mxGeometry x="275" y="220" width="190" height="60" as="geometry" />
        </mxCell>
        <mxCell id="7ifipG9ng2HD5G6kwdC--5" value="&lt;font style=&quot;font-size: 21px;&quot;&gt;&lt;b&gt;Context&lt;/b&gt;&lt;/font&gt;" style="rounded=1;whiteSpace=wrap;html=1;strokeColor=#B20000;fontColor=#ffffff;fillColor=light-dark(#E51400,#99342C);arcSize=24;verticalAlign=top;" vertex="1" parent="1">
          <mxGeometry x="-70" y="160" width="190" height="360" as="geometry" />
        </mxCell>
      </root>
    </mxGraphModel>
  </diagram>
</mxfile>
